<svg width="22" height="22" viewBox="0 0 22 22" fill="none" xmlns="http://www.w3.org/2000/svg">
<path fill-rule="evenodd" clip-rule="evenodd" d="M14.7 12.8375L21.8625 20L20 21.8625L12.8375 14.7C11.5 15.6625 9.8875 16.25 8.125 16.25C3.6375 16.25 0 12.6125 0 8.125C0 3.6375 3.6375 0 8.125 0C12.6125 0 16.25 3.6375 16.25 8.125C16.25 9.8875 15.6625 11.5 14.7 12.8375ZM8.125 2.5C5.0125 2.5 2.5 5.0125 2.5 8.125C2.5 11.2375 5.0125 13.75 8.125 13.75C11.2375 13.75 13.75 11.2375 13.75 8.125C13.75 5.0125 11.2375 2.5 8.125 2.5Z" fill="#1D1B20"/>
</svg>
